<?xml version="1.0" encoding="windows-1252"?>
<!-- Generator: Adobe Illustrator 19.0.0, SVG Export Plug-In . SVG Version: 6.00 Build 0)  -->
<svg version="1.1" id="Layer_1" xmlns="http://www.w3.org/2000/svg" xmlns:xlink="http://www.w3.org/1999/xlink" x="0px" y="0px" viewBox="0 0 485 485" style="enable-background:new 0 0 485 485;" xml:space="preserve">
<g>
	<path d="M485,182.183C485,81.727,403.273,0,302.817,0c-80.464,0-150.872,52.483-174.189,128.672   C54.227,151.599,0,220.992,0,302.817C0,403.273,81.727,485,182.183,485c80.464,0,150.872-52.482,174.188-128.671   C430.773,333.402,485,264.009,485,182.183z M182.183,455C98.269,455,30,386.731,30,302.817s68.269-152.183,152.183-152.183   c67.878,0,127.496,45.44,146.155,109.654c-8.039,2.633-16.612,4.077-25.521,4.077c-5.377,0-10.666-0.546-15.814-1.568   c-7.441-19.396-20.346-36.681-36.97-49.324c-19.648-14.941-43.11-22.838-67.851-22.838C120.325,190.635,70,240.959,70,302.817   S120.325,415,182.183,415c39.072,0,74.681-20.118,94.986-52.468c8.463,1.208,17.033,1.833,25.649,1.833   c6.432,0,12.785-0.34,19.047-0.994C298.118,418.325,243.667,455,182.183,455z M355.14,245.509   c-10.739-32.324-30.528-61.365-57.065-83.266c-17.459-14.409-37.414-25.335-58.686-32.37C254.785,111.114,277.778,100,302.817,100   C348.133,100,385,136.867,385,182.183C385,207.636,373.367,230.422,355.14,245.509z M129.861,239.491   c10.739,32.325,30.528,61.366,57.065,83.267c17.457,14.407,37.409,25.332,58.678,32.367C230.25,373.759,207.183,385,182.183,385   C136.867,385,100,348.133,100,302.817C100,277.364,111.634,254.577,129.861,239.491z M302.817,334.365   c-67.879,0-127.497-45.44-146.155-109.654c8.039-2.633,16.612-4.077,25.52-4.077c5.377,0,10.666,0.546,15.814,1.568   c7.441,19.397,20.347,36.682,36.972,49.325c19.647,14.94,43.109,22.837,67.849,22.837c61.857,0,112.183-50.325,112.183-112.183   C415,120.325,364.675,70,302.817,70c-21.283,0-42.001,5.99-59.912,17.323c-14.211,8.992-26.175,21.013-35.071,35.146   c-8.464-1.208-17.035-1.834-25.653-1.834c-6.432,0-12.785,0.34-19.047,0.994C186.883,66.675,241.333,30,302.817,30   C386.731,30,455,98.269,455,182.183C455,266.096,386.731,334.365,302.817,334.365z"/>
</g>
<g>
</g>
<g>
</g>
<g>
</g>
<g>
</g>
<g>
</g>
<g>
</g>
<g>
</g>
<g>
</g>
<g>
</g>
<g>
</g>
<g>
</g>
<g>
</g>
<g>
</g>
<g>
</g>
<g>
</g>
</svg>